<mxfile host="app.diagrams.net" modified="2022-05-06T22:42:54.075Z" agent="5.0 (Windows NT 10.0; Win64; x64) AppleWebKit/537.36 (KHTML, like Gecko) Chrome/101.0.4951.41 Safari/537.36 Edg/101.0.1210.32" etag="gql1I_EAy98o4tFvr46P" version="17.4.6" type="github">
  <diagram id="zAY9q6tdAPkRkKNimP6k" name="Page-1">
    <mxGraphModel dx="2289" dy="924" grid="1" gridSize="10" guides="1" tooltips="1" connect="1" arrows="1" fold="1" page="1" pageScale="1" pageWidth="827" pageHeight="1169" math="0" shadow="0">
      <root>
        <mxCell id="0" />
        <mxCell id="1" parent="0" />
        <mxCell id="iUnImu3jLAB5UUtZNW6z-4" style="edgeStyle=orthogonalEdgeStyle;rounded=0;orthogonalLoop=1;jettySize=auto;html=1;exitX=1;exitY=0.25;exitDx=0;exitDy=0;entryX=0;entryY=0.25;entryDx=0;entryDy=0;fontSize=20;" edge="1" parent="1" source="iUnImu3jLAB5UUtZNW6z-1" target="iUnImu3jLAB5UUtZNW6z-2">
          <mxGeometry relative="1" as="geometry" />
        </mxCell>
        <mxCell id="iUnImu3jLAB5UUtZNW6z-5" style="edgeStyle=orthogonalEdgeStyle;rounded=0;orthogonalLoop=1;jettySize=auto;html=1;exitX=1;exitY=0.75;exitDx=0;exitDy=0;entryX=0;entryY=0.75;entryDx=0;entryDy=0;fontSize=20;" edge="1" parent="1" source="iUnImu3jLAB5UUtZNW6z-1" target="iUnImu3jLAB5UUtZNW6z-2">
          <mxGeometry relative="1" as="geometry" />
        </mxCell>
        <mxCell id="iUnImu3jLAB5UUtZNW6z-1" value="&lt;font style=&quot;font-size: 20px&quot;&gt;Keyboard_Decorder.v&lt;/font&gt;" style="rounded=1;whiteSpace=wrap;html=1;" vertex="1" parent="1">
          <mxGeometry x="120" y="120" width="210" height="90" as="geometry" />
        </mxCell>
        <mxCell id="iUnImu3jLAB5UUtZNW6z-35" style="edgeStyle=orthogonalEdgeStyle;rounded=0;orthogonalLoop=1;jettySize=auto;html=1;exitX=1;exitY=0.25;exitDx=0;exitDy=0;entryX=0;entryY=0.25;entryDx=0;entryDy=0;fontSize=20;" edge="1" parent="1" source="iUnImu3jLAB5UUtZNW6z-2" target="iUnImu3jLAB5UUtZNW6z-26">
          <mxGeometry relative="1" as="geometry" />
        </mxCell>
        <mxCell id="iUnImu3jLAB5UUtZNW6z-36" style="edgeStyle=orthogonalEdgeStyle;rounded=0;orthogonalLoop=1;jettySize=auto;html=1;exitX=1;exitY=0.75;exitDx=0;exitDy=0;entryX=0;entryY=0.75;entryDx=0;entryDy=0;fontSize=20;" edge="1" parent="1" source="iUnImu3jLAB5UUtZNW6z-2" target="iUnImu3jLAB5UUtZNW6z-26">
          <mxGeometry relative="1" as="geometry" />
        </mxCell>
        <mxCell id="iUnImu3jLAB5UUtZNW6z-2" value="&lt;span style=&quot;font-size: 20px&quot;&gt;Keyboard_Eecorder.v&lt;/span&gt;" style="whiteSpace=wrap;html=1;rounded=1;" vertex="1" parent="1">
          <mxGeometry x="500" y="120" width="210" height="90" as="geometry" />
        </mxCell>
        <mxCell id="iUnImu3jLAB5UUtZNW6z-6" value="&lt;font style=&quot;font-size: 15px&quot;&gt;[511:0] key_down&lt;/font&gt;" style="rounded=1;whiteSpace=wrap;html=1;fontSize=20;" vertex="1" parent="1">
          <mxGeometry x="340" y="100" width="140" height="30" as="geometry" />
        </mxCell>
        <mxCell id="iUnImu3jLAB5UUtZNW6z-7" value="&lt;font style=&quot;font-size: 15px&quot;&gt;[8:0] last_chage&lt;/font&gt;" style="rounded=1;whiteSpace=wrap;html=1;fontSize=20;" vertex="1" parent="1">
          <mxGeometry x="340" y="210" width="140" height="30" as="geometry" />
        </mxCell>
        <mxCell id="iUnImu3jLAB5UUtZNW6z-21" style="edgeStyle=orthogonalEdgeStyle;rounded=0;orthogonalLoop=1;jettySize=auto;html=1;exitX=1;exitY=0.5;exitDx=0;exitDy=0;entryX=0;entryY=0;entryDx=0;entryDy=0;fontSize=15;" edge="1" parent="1" source="iUnImu3jLAB5UUtZNW6z-8" target="iUnImu3jLAB5UUtZNW6z-1">
          <mxGeometry relative="1" as="geometry" />
        </mxCell>
        <mxCell id="iUnImu3jLAB5UUtZNW6z-8" value="&lt;span style=&quot;font-size: 15px&quot;&gt;PS2_DATA&lt;/span&gt;" style="rounded=1;whiteSpace=wrap;html=1;fontSize=20;" vertex="1" parent="1">
          <mxGeometry x="-90" y="110" width="140" height="20" as="geometry" />
        </mxCell>
        <mxCell id="iUnImu3jLAB5UUtZNW6z-22" style="edgeStyle=orthogonalEdgeStyle;rounded=0;orthogonalLoop=1;jettySize=auto;html=1;exitX=1;exitY=0.5;exitDx=0;exitDy=0;entryX=0;entryY=0.25;entryDx=0;entryDy=0;fontSize=15;" edge="1" parent="1" source="iUnImu3jLAB5UUtZNW6z-11" target="iUnImu3jLAB5UUtZNW6z-1">
          <mxGeometry relative="1" as="geometry" />
        </mxCell>
        <mxCell id="iUnImu3jLAB5UUtZNW6z-11" value="&lt;span style=&quot;font-size: 15px&quot;&gt;PS2_CLK&lt;/span&gt;" style="rounded=1;whiteSpace=wrap;html=1;fontSize=20;" vertex="1" parent="1">
          <mxGeometry x="-90" y="140" width="140" height="20" as="geometry" />
        </mxCell>
        <mxCell id="iUnImu3jLAB5UUtZNW6z-20" style="edgeStyle=orthogonalEdgeStyle;rounded=0;orthogonalLoop=1;jettySize=auto;html=1;exitX=1;exitY=0.5;exitDx=0;exitDy=0;entryX=0;entryY=0.75;entryDx=0;entryDy=0;fontSize=15;" edge="1" parent="1" source="iUnImu3jLAB5UUtZNW6z-15" target="iUnImu3jLAB5UUtZNW6z-1">
          <mxGeometry relative="1" as="geometry" />
        </mxCell>
        <mxCell id="iUnImu3jLAB5UUtZNW6z-24" style="edgeStyle=orthogonalEdgeStyle;rounded=0;orthogonalLoop=1;jettySize=auto;html=1;exitX=0;exitY=0.5;exitDx=0;exitDy=0;entryX=0.5;entryY=1;entryDx=0;entryDy=0;fontSize=15;" edge="1" parent="1" source="iUnImu3jLAB5UUtZNW6z-15" target="iUnImu3jLAB5UUtZNW6z-2">
          <mxGeometry relative="1" as="geometry">
            <Array as="points">
              <mxPoint x="-110" y="180" />
              <mxPoint x="-110" y="270" />
              <mxPoint x="605" y="270" />
            </Array>
          </mxGeometry>
        </mxCell>
        <mxCell id="iUnImu3jLAB5UUtZNW6z-15" value="&lt;span style=&quot;font-size: 15px&quot;&gt;rst&lt;/span&gt;" style="rounded=1;whiteSpace=wrap;html=1;fontSize=20;" vertex="1" parent="1">
          <mxGeometry x="-90" y="170" width="140" height="20" as="geometry" />
        </mxCell>
        <mxCell id="iUnImu3jLAB5UUtZNW6z-19" style="edgeStyle=orthogonalEdgeStyle;rounded=0;orthogonalLoop=1;jettySize=auto;html=1;exitX=1;exitY=0.5;exitDx=0;exitDy=0;entryX=0;entryY=1;entryDx=0;entryDy=0;fontSize=15;" edge="1" parent="1" source="iUnImu3jLAB5UUtZNW6z-18" target="iUnImu3jLAB5UUtZNW6z-1">
          <mxGeometry relative="1" as="geometry" />
        </mxCell>
        <mxCell id="iUnImu3jLAB5UUtZNW6z-25" style="edgeStyle=orthogonalEdgeStyle;rounded=0;orthogonalLoop=1;jettySize=auto;html=1;exitX=0;exitY=0.5;exitDx=0;exitDy=0;entryX=0.25;entryY=1;entryDx=0;entryDy=0;fontSize=15;" edge="1" parent="1" source="iUnImu3jLAB5UUtZNW6z-18" target="iUnImu3jLAB5UUtZNW6z-2">
          <mxGeometry relative="1" as="geometry">
            <Array as="points">
              <mxPoint x="-100" y="210" />
              <mxPoint x="-100" y="250" />
              <mxPoint x="553" y="250" />
            </Array>
          </mxGeometry>
        </mxCell>
        <mxCell id="iUnImu3jLAB5UUtZNW6z-18" value="&lt;span style=&quot;font-size: 15px&quot;&gt;clk&lt;/span&gt;" style="rounded=1;whiteSpace=wrap;html=1;fontSize=20;" vertex="1" parent="1">
          <mxGeometry x="-90" y="200" width="140" height="20" as="geometry" />
        </mxCell>
        <mxCell id="iUnImu3jLAB5UUtZNW6z-34" value="" style="edgeStyle=orthogonalEdgeStyle;rounded=0;orthogonalLoop=1;jettySize=auto;html=1;fontSize=20;" edge="1" parent="1" source="iUnImu3jLAB5UUtZNW6z-26" target="iUnImu3jLAB5UUtZNW6z-33">
          <mxGeometry relative="1" as="geometry" />
        </mxCell>
        <mxCell id="iUnImu3jLAB5UUtZNW6z-26" value="&lt;font style=&quot;font-size: 20px&quot;&gt;Display.v&lt;/font&gt;" style="whiteSpace=wrap;html=1;rounded=1;" vertex="1" parent="1">
          <mxGeometry x="820" y="120" width="130" height="90" as="geometry" />
        </mxCell>
        <mxCell id="iUnImu3jLAB5UUtZNW6z-32" value="&lt;font style=&quot;font-size: 15px&quot;&gt;[3:0] ssd_in&lt;/font&gt;" style="rounded=1;whiteSpace=wrap;html=1;fontSize=20;" vertex="1" parent="1">
          <mxGeometry x="720" y="105" width="90" height="30" as="geometry" />
        </mxCell>
        <mxCell id="iUnImu3jLAB5UUtZNW6z-33" value="&lt;font style=&quot;font-size: 20px&quot;&gt;[7:0] segs&lt;/font&gt;" style="whiteSpace=wrap;html=1;rounded=1;" vertex="1" parent="1">
          <mxGeometry x="980" y="147.5" width="110" height="35" as="geometry" />
        </mxCell>
        <mxCell id="iUnImu3jLAB5UUtZNW6z-37" value="&lt;font style=&quot;font-size: 15px&quot;&gt;[3:0] ssd_ctl&lt;/font&gt;" style="rounded=1;whiteSpace=wrap;html=1;fontSize=20;" vertex="1" parent="1">
          <mxGeometry x="720" y="195" width="90" height="30" as="geometry" />
        </mxCell>
      </root>
    </mxGraphModel>
  </diagram>
</mxfile>
